PathFileType   4   (X/Y/Z)
DataRate	CameraRate	NumFrames	NumMarkers	Units	OrigDataRate	OrigDataStartFrame	OrigNumFrames
120.0	120.0	12	37	mm	120.0	59	116
Frame#	Time	midhip	hip_r	hip_l	knee_r	knee_l	ankle_r	ankle_l	midasis	asis_r	asis_l	psis_r	psis_l	epicondLat_r	epicondLat_l	epicondMed_r	epicondMed_l	malleolusLat_r	malleolusLat_l	malleolusMedv_r	malleolusMedv_l	neck	subclavicle_r	subclavicle_l	sternalnotch	xyphoidprocess	thighwand_r	thighwand_l	upperleg1_r	upperleg1_l	upperleg2_r	upperleg2_l	shankwand_r	shankwand_l	lowerleg1_r	lowerleg1_l	toe_r	toe_l
 	 	X1	Y1	Z1	X2	Y2	Z2	X3	Y3	Z3	X4	Y4	Z4	X5	Y5	Z5	X6	Y6	Z6	X7	Y7	Z7	X8	Y8	Z8	X9	Y9	Z9	X10	Y10	Z10	X11	Y11	Z11	X12	Y12	Z12	X13	Y13	Z13	X14	Y14	Z14	X15	Y15	Z15	X16	Y16	Z16	X17	Y17	Z17	X18	Y18	Z18	X19	Y19	Z19	X20	Y20	Z20	X21	Y21	Z21	X22	Y22	Z22	X23	Y23	Z23	X24	Y24	Z24	X25	Y25	Z25	X26	Y26	Z26	X27	Y27	Z27	X28	Y28	Z28	X29	Y29	Z29	X30	Y30	Z30	X31	Y31	Z31	X32	Y32	Z32	X33	Y33	Z33	X34	Y34	Z34	X35	Y35	Z35	X36	Y36	Z36	X37	Y37	Z37

	59	0.59167	1815.636	649.992	-176.215	1808.236	651.972	-109.202	1813.161	659.582	-234.704	1684.315	362.476	-118.525	1970.825	380.375	-209.820	1447.290	134.602	-111.178	2023.369	60.349	-213.689	1878.237	716.995	-165.591	1874.543	711.286	-71.442	1881.931	722.704	-259.739	1733.475	761.021	-154.252	1733.299	756.825	-209.229	1682.605	361.583	-68.062	1971.754	376.458	-259.658	1683.919	361.626	-167.030	1985.556	387.978	-154.597	1443.176	139.939	-78.363	2017.046	59.721	-247.599	1446.950	143.624	-137.348	2019.058	65.985	-185.108	1766.301	1101.712	-183.613	1854.844	1068.473	-124.776	1846.164	1066.127	-251.017	1845.405	1055.190	-189.656	1884.973	916.441	-189.292	1718.852	448.842	11.611	2038.683	537.660	-254.383	1770.894	493.897	-54.074	1950.416	556.912	-203.523	1752.064	412.913	-70.091	1986.678	478.144	-188.836	1507.027	223.017	-7.178	2090.464	171.638	-253.704	1551.453	251.123	-67.664	2028.420	219.680	-230.453	1475.105	45.698	-120.089	2115.736	43.227	-217.911
	60	0.60000	1828.466	651.258	-177.757	1821.254	652.768	-110.860	1825.637	661.335	-236.320	1702.966	359.901	-117.569	1979.903	381.003	-209.619	1460.460	139.385	-109.981	2024.355	59.888	-213.117	1890.968	718.269	-167.051	1887.679	711.842	-72.932	1894.256	724.696	-261.169	1745.978	762.068	-154.099	1745.473	758.426	-209.206	1701.599	359.297	-67.091	1981.538	377.157	-259.444	1704.700	356.377	-165.789	1972.382	385.317	-154.156	1456.549	144.815	-77.157	2018.754	59.484	-247.157	1460.127	148.678	-135.945	2020.178	65.565	-184.617	1778.428	1103.122	-184.548	1867.219	1069.970	-126.109	1858.236	1067.448	-252.108	1857.878	1056.760	-190.812	1897.276	917.867	-190.382	1736.491	447.667	11.570	2050.115	538.034	-252.982	1787.957	492.708	-54.840	1961.665	557.535	-202.027	1771.207	410.970	-69.541	1986.676	475.222	-186.815	1522.767	226.015	-6.013	2095.524	169.382	-251.595	1568.403	252.340	-66.241	2027.132	216.785	-227.437	1481.941	48.211	-119.657	2117.120	41.353	-216.894
	61	0.60833	1840.950	652.657	-179.179	1833.883	653.829	-112.380	1837.837	663.131	-237.802	1722.219	357.419	-116.526	1988.338	381.494	-209.523	1474.695	144.213	-108.891	2025.137	59.552	-212.618	1903.404	719.659	-168.425	1900.437	712.680	-74.327	1906.371	726.637	-262.523	1758.216	763.330	-154.183	1757.473	760.179	-209.408	1721.160	357.112	-66.038	1990.553	377.677	-259.328	1726.577	351.182	-164.314	2003.096	387.039	-155.181	1470.983	149.699	-76.052	2020.056	59.299	-246.741	1474.464	153.759	-134.632	2020.557	65.355	-184.162	1790.383	1104.757	-185.469	1879.554	1071.588	-127.198	1870.200	1068.941	-253.104	1870.533	1058.456	-191.922	1909.430	919.423	-191.376	1754.344	446.613	11.617	2060.963	538.061	-251.912	1805.367	491.720	-55.376	1972.302	557.747	-201.263	1790.936	409.308	-68.674	2006.742	477.704	-187.548	1539.415	228.936	-4.880	2099.851	167.197	-250.047	1586.208	253.688	-64.809	2038.151	217.653	-227.463	1490.328	51.198	-119.111	2118.198	39.967	-216.137
	62	0.61667	1853.006	654.198	-180.418	1846.102	655.166	-113.708	1849.713	664.963	-239.103	1742.035	355.151	-115.435	1996.134	381.874	-209.550	1489.968	149.063	-107.949	2025.779	59.316	-212.199	1915.528	721.153	-169.685	1912.819	713.802	-75.603	1918.237	728.504	-263.767	1770.192	764.839	-154.484	1769.292	762.109	-209.808	1741.198	355.151	-64.942	1998.758	378.034	-259.333	1748.880	346.528	-162.768	2009.575	386.514	-156.118	1486.444	154.567	-75.093	2021.008	59.158	-246.367	1490.185	158.532	-133.475	2020.854	65.121	-183.768	1802.115	1106.515	-186.262	1891.672	1073.371	-128.076	1882.072	1070.630	-253.977	1882.474	1060.190	-192.780	1921.558	921.190	-192.218	1772.254	445.770	11.737	2071.194	537.711	-251.284	1822.840	491.094	-55.758	1982.222	557.912	-201.568	1810.834	408.123	-67.698	2015.123	477.357	-187.874	1556.904	231.788	-3.821	2103.483	165.118	-249.085	1604.854	255.214	-63.623	2042.241	217.117	-227.060	1500.483	54.584	-118.434	2119.028	38.980	-215.597
	63	0.62500	1864.615	655.898	-181.451	1857.913	656.778	-114.812	1861.224	666.840	-240.194	1762.378	353.208	-114.327	2003.297	382.163	-209.706	1506.240	153.897	-107.200	2026.319	59.154	-211.866	1927.325	722.751	-170.823	1924.842	715.202	-76.759	1929.809	730.299	-264.888	1781.911	766.612	-154.956	1780.916	764.227	-210.354	1761.630	353.524	-63.833	2006.140	378.252	-259.471	1771.418	342.723	-161.511	2015.510	386.283	-157.269	1502.885	159.383	-74.323	2021.671	59.052	-246.051	1507.183	162.750	-132.561	2021.153	64.962	-183.396	1813.706	1108.466	-186.953	1903.453	1075.341	-128.808	1893.842	1072.474	-254.708	1894.247	1062.075	-193.489	1933.392	923.109	-192.807	1790.087	445.217	11.917	2080.794	536.999	-251.148	1840.014	490.875	-55.985	1991.605	558.225	-202.568	1830.693	407.595	-66.834	2022.976	477.117	-188.686	1575.153	234.575	-2.875	2106.486	163.167	-248.660	1623.959	256.710	-62.435	2045.762	216.559	-226.988	1512.590	58.258	-117.613	2119.655	38.301	-215.229
	64	0.63333	1875.779	657.761	-182.271	1869.341	658.658	-115.687	1872.350	668.773	-241.073	1783.211	351.688	-113.228	2009.847	382.381	-209.989	1523.471	158.657	-106.677	2026.773	59.042	-211.621	1938.795	724.458	-171.849	1936.538	716.871	-77.807	1941.052	732.045	-265.891	1793.387	768.646	-155.537	1792.332	766.525	-210.979	1782.381	352.326	-62.739	2012.719	378.360	-259.744	1793.548	339.999	-160.297	2021.465	386.334	-158.043	1520.258	164.098	-73.778	2022.106	58.970	-245.804	1525.087	166.862	-131.880	2021.371	64.834	-183.093	1825.166	1110.560	-187.524	1914.989	1077.445	-129.335	1905.455	1074.481	-255.317	1905.847	1064.106	-194.043	1944.988	925.168	-193.239	1807.739	445.011	12.143	2089.770	535.967	-251.499	1857.416	491.089	-56.149	2000.743	558.617	-203.634	1850.293	407.680	-65.942	2030.655	476.991	-189.497	1594.076	237.305	-2.078	2108.950	161.357	-248.663	1643.835	257.692	-61.008	2048.529	215.871	-227.329	1526.781	62.087	-116.637	2120.117	37.839	-214.992
	65	0.64167	1886.568	659.791	-182.905	1880.425	660.787	-116.350	1883.088	670.774	-241.754	1804.489	350.677	-112.160	2015.803	382.541	-210.393	1541.622	163.268	-106.403	2027.139	58.958	-211.463	1949.944	726.283	-172.785	1947.948	718.796	-78.773	1951.941	733.771	-266.798	1804.641	770.918	-156.164	1803.525	768.982	-211.621	1803.384	351.629	-61.681	2018.532	378.384	-260.145	1814.905	338.253	-158.748	2027.389	386.517	-158.269	1538.511	168.643	-73.484	2022.370	58.904	-245.632	1543.821	171.157	-131.444	2021.432	64.735	-182.911	1836.603	1112.763	-187.960	1926.263	1079.621	-129.632	1916.973	1076.718	-255.775	1917.277	1066.272	-194.460	1956.364	927.370	-193.622	1825.151	445.184	12.405	2098.144	534.674	-252.292	1875.262	491.733	-56.188	2009.645	558.947	-204.572	1869.479	408.306	-64.748	2038.133	476.859	-190.125	1613.584	239.980	-1.462	2110.973	159.690	-248.945	1664.458	258.780	-59.792	2050.704	215.139	-228.036	1543.106	65.930	-115.497	2120.445	37.520	-214.858
	66	0.65000	1897.015	661.971	-183.369	1891.219	663.141	-116.839	1893.473	672.851	-242.272	1826.151	350.236	-111.136	2021.209	382.656	-210.904	1560.657	167.629	-106.384	2027.412	58.893	-211.383	1960.799	728.236	-173.663	1959.111	720.961	-79.683	1962.488	735.511	-267.642	1815.695	773.392	-156.782	1814.487	771.561	-212.227	1824.581	351.482	-60.676	2023.649	378.351	-260.659	1837.041	336.889	-157.119	2032.731	386.567	-158.703	1557.597	172.934	-73.449	2022.513	58.849	-245.533	1563.324	175.688	-131.537	2021.472	64.753	-182.829	1847.951	1115.197	-188.398	1937.335	1081.855	-129.749	1928.413	1079.086	-256.047	1928.552	1068.559	-194.758	1967.348	929.609	-193.855	1842.307	445.741	12.697	2105.946	533.173	-253.457	1891.935	493.073	-55.595	2018.196	559.159	-205.432	1888.466	409.450	-63.238	2045.100	476.603	-190.898	1633.593	242.602	-1.052	2112.657	158.163	-249.362	1685.282	260.546	-58.922	2052.631	214.510	-228.885	1561.526	69.653	-114.189	2120.666	37.284	-214.807
	67	0.65833	1907.235	664.286	-183.723	1901.782	665.691	-117.189	1903.545	675.000	-242.661	1848.115	350.408	-110.169	2026.113	382.737	-211.505	1580.541	171.626	-106.608	2027.595	58.841	-211.366	1971.390	730.318	-174.510	1970.070	723.348	-80.564	1972.711	737.288	-268.457	1826.578	776.021	-157.357	1825.216	774.226	-212.768	1845.912	351.906	-59.740	2028.145	378.285	-261.265	1860.556	335.976	-155.644	2036.216	386.548	-159.618	1577.473	176.874	-73.664	2022.579	58.804	-245.499	1584.019	179.996	-132.054	2021.530	64.717	-182.879	1859.242	1117.752	-188.856	1948.167	1084.175	-129.799	1939.796	1081.528	-256.178	1939.701	1070.954	-194.957	1978.061	931.900	-193.913	1859.234	446.667	13.015	2113.217	531.509	-254.915	1907.998	495.055	-54.738	2026.447	559.330	-206.296	1907.704	411.146	-61.636	2050.953	476.336	-191.933	1654.028	245.168	-0.863	2114.089	156.777	-249.804	1706.261	262.796	-58.336	2054.365	213.942	-229.520	1581.923	73.134	-112.716	2120.810	37.097	-214.825
	68	0.66667	1917.265	666.706	-183.986	1912.167	668.408	-117.444	1913.367	677.211	-242.959	1870.278	351.210	-109.272	2030.565	382.800	-212.171	1601.242	175.136	-107.043	2027.701	58.807	-211.397	1981.759	732.526	-175.353	1980.861	725.939	-81.436	1982.657	739.113	-269.270	1837.316	778.758	-157.875	1835.724	776.937	-213.231	1867.319	352.899	-58.887	2032.099	378.206	-261.936	1883.472	335.768	-153.729	2047.131	385.225	-162.047	1598.098	180.357	-74.102	2022.597	58.770	-245.517	1605.915	183.384	-132.782	2021.666	64.784	-183.012	1870.432	1120.341	-189.268	1958.848	1086.593	-129.834	1951.121	1084.104	-256.312	1950.745	1073.449	-195.080	1988.798	934.337	-193.995	1875.991	447.932	13.358	2119.999	529.707	-256.589	1924.989	497.252	-54.180	2027.056	557.845	-206.018	1926.811	413.440	-59.847	2056.416	476.158	-193.111	1674.821	247.662	-0.899	2115.330	155.530	-250.216	1727.586	265.365	-58.021	2056.200	213.437	-229.893	1604.114	76.280	-111.093	2120.903	36.938	-214.903
	69	0.67500	1927.240	669.212	-184.214	1922.423	671.257	-117.633	1922.998	679.464	-243.193	1892.518	352.636	-108.458	2034.612	382.856	-212.869	1622.725	178.040	-107.644	2027.758	58.792	-211.461	1991.945	734.845	-176.208	1991.514	728.708	-82.315	1992.375	740.982	-270.101	1847.934	781.560	-158.340	1846.030	779.661	-213.624	1888.743	354.439	-58.132	2035.578	378.131	-262.636	1905.150	336.512	-151.513	2044.991	386.832	-161.216	1619.434	183.279	-74.720	2022.588	58.753	-245.572	1628.330	185.769	-133.748	2021.927	65.128	-183.108	1881.417	1123.102	-189.599	1969.612	1089.091	-129.825	1962.292	1086.769	-256.427	1961.704	1076.025	-195.154	1999.467	936.853	-194.120	1892.657	449.498	13.726	2126.340	527.777	-258.411	1941.508	500.069	-53.233	2041.351	559.472	-209.140	1945.146	416.123	-57.828	2062.770	475.763	-194.455	1695.916	250.059	-1.151	2116.410	154.419	-250.597	1749.360	268.084	-57.973	2058.461	213.035	-230.125	1627.883	79.019	-109.348	2120.966	36.799	-215.028
	70	0.68333	1937.137	671.763	-184.389	1932.592	674.205	-117.793	1932.517	681.733	-243.396	1914.706	354.647	-107.742	2038.296	382.916	-213.565	1644.954	180.234	-108.358	2027.803	58.800	-211.543	2001.999	737.253	-177.083	2002.056	731.628	-83.209	2001.942	742.879	-270.958	1858.451	784.387	-158.770	1856.169	782.364	-213.966	1910.125	356.484	-57.484	2038.643	378.070	-263.329	1927.533	338.296	-149.855	2050.184	386.483	-162.659	1641.444	185.546	-75.468	2022.563	58.757	-245.643	1651.535	187.115	-134.502	2022.057	65.308	-183.246	1892.397	1125.926	-189.865	1980.343	1091.670	-129.769	1973.401	1089.516	-256.431	1972.596	1078.663	-195.197	2010.088	939.451	-194.177	1909.321	451.329	14.122	2132.289	525.717	-260.321	1956.984	503.600	-51.780	2048.265	559.377	-210.364	1963.453	419.322	-55.943	2068.801	475.050	-195.982	1717.266	252.317	-1.601	2117.336	153.440	-250.986	1771.685	270.657	-58.181	2060.429	212.661	-230.345	1653.014	81.307	-107.525	2121.019	36.681	-215.187
